<?xml version="1.0" encoding="UTF-8" standalone="no"?>
<!-- Created with Inkscape (http://www.inkscape.org/) -->

<svg
   xmlns:dc="http://purl.org/dc/elements/1.1/"
   xmlns:cc="http://creativecommons.org/ns#"
   xmlns:rdf="http://www.w3.org/1999/02/22-rdf-syntax-ns#"
   xmlns:svg="http://www.w3.org/2000/svg"
   xmlns="http://www.w3.org/2000/svg"
   xmlns:sodipodi="http://sodipodi.sourceforge.net/DTD/sodipodi-0.dtd"
   xmlns:inkscape="http://www.inkscape.org/namespaces/inkscape"
   width="827.125"
   height="237.375"
   id="svg2"
   version="1.1"
   inkscape:version="0.48.4 r9939"
   sodipodi:docname="sfbamo.svg">
  <defs
     id="defs4" />
  <sodipodi:namedview
     id="base"
     pagecolor="#ffffff"
     bordercolor="#666666"
     borderopacity="1.0"
     inkscape:pageopacity="0.0"
     inkscape:pageshadow="2"
     inkscape:zoom="1.4"
     inkscape:cx="447.99409"
     inkscape:cy="86.533715"
     inkscape:document-units="px"
     inkscape:current-layer="layer1"
     showgrid="false"
     inkscape:object-paths="true"
     inkscape:snap-intersection-paths="true"
     inkscape:object-nodes="true"
     inkscape:snap-smooth-nodes="true"
     inkscape:window-width="1920"
     inkscape:window-height="1056"
     inkscape:window-x="0"
     inkscape:window-y="24"
     inkscape:window-maximized="1"
     fit-margin-top="0"
     fit-margin-left="0"
     fit-margin-right="0"
     fit-margin-bottom="0" />
  <metadata
     id="metadata7">
    <rdf:RDF>
      <cc:Work
         rdf:about="">
        <dc:format>image/svg+xml</dc:format>
        <dc:type
           rdf:resource="http://purl.org/dc/dcmitype/StillImage" />
        <dc:title></dc:title>
      </cc:Work>
    </rdf:RDF>
  </metadata>
  <g
     inkscape:label="Layer 1"
     inkscape:groupmode="layer"
     id="layer1"
     transform="translate(208.86161,-226.63393)">
    <path
       style="font-size:40px;font-style:normal;font-variant:normal;font-weight:500;font-stretch:normal;line-height:125%;letter-spacing:0px;word-spacing:0px;fill:#ceffe8;fill-opacity:1;stroke:none;font-family:AgitProp;-inkscape-font-specification:AgitProp Medium"
       d="m -208.86161,226.63393 0,33.375 0,204 32.375,0 794.75,0 0,-34.75 0,-202.625 -827.125,0 z m 32.375,33.375 762.375,0 0,169.25 -762.375,0 0,-169.25 z m 32.375,33.375 0,33.875 42.125,36.5 -42.125,0 0,33.625 92.750003,0 0,-34 -41.875,-36.5 41.875,0 0,-33.5 -92.750003,0 z m 108.000003,0 0,104 33.4999999,0 0,-24.875 47.2500001,0 0,-33.625 -47.2500001,0 0,-12 59.2500001,0 0,-33.5 -92.75,0 z m 149.999997,0 0,104 92.75,0 0,-42.25 -9.75,-9.75 9.75,-9.75 0,-42.25 -92.75,0 z m 107.75,0 0,104 33.625,0 0,-12 25.625,0 0,12 33.625,0 0,-104 -92.875,0 z m 107.875,0 0,104 33.5,0 0,-39.875 24.375,24.625 24.125,-24.625 0,39.875 33.625,0 0,-104 -33.625,0 0,16.625 -24.25,24.625 -24.25,-24.625 0,-16.625 -33.5,0 z m 130.25,0 0,104 92.875,0 0,-104 -92.875,0 z m -312.375,33.5 20.375,0 -18.5,18.5 18.5,18.375 -20.375,0 0,-36.875 z m 107.875,0 25.625,0 0,24 -25.625,0 0,-24 z m 238.125,0 25.625,0 0,36.875 -25.625,0 0,-36.875 z m -547.999997,107.6875 10.46875,23.6875 -2.6875,0 -2.9375,-6.96875 -9.75,0 -2.90625,6.96875 -2.6875,0 10.5,-23.6875 z m 49.3124999,0 10.46875,23.6875 -2.6875,0 -2.93750003,-6.96875 -9.74999987,0 -2.90625,6.96875 -2.6875,0 10.4999999,-23.6875 z m 59.2812501,0 10.5,23.6875 -2.6875,0 -2.96875,-6.96875 -9.75,0 -2.90625,6.96875 -2.65625,0 10.46875,-23.6875 z m 227.468747,0 10.5,23.6875 -2.6875,0 -2.96875,-6.96875 -9.75,0 -2.90625,6.96875 -2.65625,0 10.46875,-23.6875 z m 13.0625,0 19.375,18 0,-17.75 2.5,0 0,23.71875 -19.375,-18 0,17.75 -2.5,0 0,-23.71875 z m 92.6875,0 c 1.37303,2e-5 2.63859,0.39095 3.8125,1.1875 1.17389,0.7966 1.99689,1.92861 2.5,3.375 l 0.1875,0.5 -2.34375,0.8125 -0.15625,-0.53125 c -0.33541,-0.94329 -0.89133,-1.66361 -1.625,-2.15625 -0.7337,-0.4926 -1.50507,-0.71873 -2.375,-0.71875 -1.01669,2e-5 -1.86065,0.31893 -2.5,0.96875 -0.63936,0.63938 -0.96876,1.42142 -0.96875,2.34375 -1e-5,0.49264 0.12344,0.94548 0.375,1.34375 0.26202,0.3983 0.63276,0.71702 1.0625,1 0.42972,0.28301 0.90275,0.55048 1.46875,0.8125 0.56598,0.25156 1.16285,0.51923 1.78125,0.78125 0.61838,0.25156 1.25659,0.52952 1.875,0.8125 0.61838,0.27253 1.184,0.58096 1.75,0.96875 0.56597,0.37734 1.07025,0.80961 1.5,1.28125 0.42971,0.46119 0.77968,1.03748 1.03125,1.71875 0.26201,0.67081 0.40623,1.40122 0.40625,2.21875 -2e-5,1.39401 -0.38085,2.68053 -1.125,3.8125 -0.74418,1.1215 -1.72188,1.96507 -2.90625,2.5625 -1.18439,0.58695 -2.42918,0.875 -3.78125,0.875 -0.89091,0 -1.74497,-0.12326 -2.5625,-0.40625 -0.81754,-0.28299 -1.59978,-0.69449 -2.3125,-1.25 -0.70225,-0.5555 -1.3094,-1.2964 -1.8125,-2.21875 -0.5031,-0.93283 -0.8323,-2.02388 -1,-3.21875 l -0.0937,-0.53125 2.46875,-0.28125 0.0937,0.5 c 0.12577,0.84899 0.3521,1.58969 0.6875,2.25 0.33539,0.64984 0.74709,1.1747 1.21875,1.5625 0.47165,0.37733 0.97574,0.67586 1.53125,0.875 0.5555,0.18866 1.16285,0.28125 1.78125,0.28125 1.43592,0 2.66013,-0.44236 3.71875,-1.34375 1.06907,-0.90138 1.62499,-2.09531 1.625,-3.53125 -1e-5,-0.7756 -0.23701,-1.44429 -0.65625,-2.03125 -0.40878,-0.58694 -0.93344,-1.07065 -1.59375,-1.4375 -0.64985,-0.37731 -1.38046,-0.70632 -2.1875,-1.03125 -0.79658,-0.33539 -1.57843,-0.70613 -2.375,-1.0625 -0.79658,-0.35635 -1.52719,-0.74727 -2.1875,-1.1875 -0.64984,-0.4402 -1.20575,-1.01649 -1.625,-1.71875 -0.40877,-0.71271 -0.59375,-1.5359 -0.59375,-2.46875 0,-1.58265 0.55572,-2.92022 1.65625,-4.03125 1.10052,-1.12147 2.52059,-1.68748 4.25,-1.6875 z m -305.656247,0.0312 8.59375,17.71875 8.78125,-17.71875 4.718747,23.6875 -2.53125,0 -3.187497,-15.34375 -7.84375,15.5625 -7.65625,-15.5625 -3.28125,15.34375 -2.4375,0 4.84375,-23.6875 z m 88.937497,0 c 1.64554,2e-5 3.21992,0.30865 4.71875,0.9375 1.50928,0.6289 2.81618,1.49343 3.90625,2.5625 1.10051,1.06911 1.98562,2.33466 2.625,3.8125 0.64981,1.47787 0.96872,3.03167 0.96875,4.65625 -3e-5,1.6246 -0.31894,3.1784 -0.96875,4.65625 -0.63938,1.46738 -1.52449,2.72265 -2.625,3.78125 -1.09007,1.05861 -2.39697,1.90238 -3.90625,2.53125 -1.49883,0.62887 -3.07321,0.9375 -4.71875,0.9375 -1.65605,0 -3.23023,-0.30863 -4.75,-0.9375 -1.50931,-0.62887 -2.80573,-1.47264 -3.90625,-2.53125 -1.09005,-1.0586 -1.97517,-2.31387 -2.625,-3.78125 -0.64984,-1.47785 -0.96875,-3.03165 -0.96875,-4.65625 0,-1.62458 0.31891,-3.17838 0.96875,-4.65625 0.64983,-1.47784 1.53495,-2.74339 2.625,-3.8125 1.10052,-1.06907 2.39694,-1.9336 3.90625,-2.5625 1.51977,-0.62885 3.09395,-0.93748 4.75,-0.9375 z m 46.40625,0 c 1.64554,2e-5 3.21992,0.30865 4.71875,0.9375 1.50928,0.6289 2.81618,1.49343 3.90625,2.5625 1.10051,1.06911 1.98562,2.33466 2.625,3.8125 0.64981,1.47787 0.96872,3.03167 0.96875,4.65625 -3e-5,1.6246 -0.31894,3.1784 -0.96875,4.65625 -0.63938,1.46738 -1.52449,2.72265 -2.625,3.78125 -1.09007,1.05861 -2.39697,1.90238 -3.90625,2.53125 -1.49883,0.62887 -3.07321,0.9375 -4.71875,0.9375 -1.65605,0 -3.23023,-0.30863 -4.75,-0.9375 -1.50931,-0.62887 -2.80573,-1.47264 -3.90625,-2.53125 -1.09005,-1.0586 -1.97517,-2.31387 -2.625,-3.78125 -0.64984,-1.47785 -0.96875,-3.03165 -0.96875,-4.65625 0,-1.62458 0.31891,-3.17838 0.96875,-4.65625 0.64983,-1.47784 1.53495,-2.74339 2.625,-3.8125 1.10052,-1.06907 2.39694,-1.9336 3.90625,-2.5625 1.51977,-0.62885 3.09395,-0.93748 4.75,-0.9375 z m 126.96875,0 c 1.64554,2e-5 3.21992,0.30865 4.71875,0.9375 1.50928,0.6289 2.81618,1.49343 3.90625,2.5625 1.10051,1.06911 1.98562,2.33466 2.625,3.8125 0.64981,1.47787 0.96872,3.03167 0.96875,4.65625 -3e-5,1.6246 -0.31894,3.1784 -0.96875,4.65625 -0.63938,1.46738 -1.52449,2.72265 -2.625,3.78125 -1.09007,1.05861 -2.39697,1.90238 -3.90625,2.53125 -1.49883,0.62887 -3.07321,0.9375 -4.71875,0.9375 -1.65605,0 -3.23023,-0.30863 -4.75,-0.9375 -1.50931,-0.62887 -2.80573,-1.47264 -3.90625,-2.53125 -1.09005,-1.0586 -1.97517,-2.31387 -2.625,-3.78125 -0.64984,-1.47785 -0.96875,-3.03165 -0.96875,-4.65625 0,-1.62458 0.31891,-3.17838 0.96875,-4.65625 0.64983,-1.47784 1.53495,-2.74339 2.625,-3.8125 1.10052,-1.06907 2.39694,-1.9336 3.90625,-2.5625 1.51977,-0.62885 3.09395,-0.93748 4.75,-0.9375 z m -426.968747,0.21875 8.4375,0 c 1.760837,2e-5 3.273487,0.5866 4.53125,1.75 1.268214,1.15296 1.906233,2.53168 1.90625,4.15625 -1.7e-5,0.85948 -0.174711,1.67239 -0.5625,2.4375 -0.387822,0.75466 -0.943735,1.40297 -1.625,1.9375 1.194846,0.60792 2.14149,1.45169 2.84375,2.53125 0.712706,1.0691 1.093731,2.24207 1.09375,3.53125 -1.9e-5,1.31016 -0.391331,2.52447 -1.125,3.625 -0.723223,1.10053 -1.690442,1.94411 -2.90625,2.5625 -1.215838,0.61839 -2.522544,0.9375 -3.9375,0.9375 l -8.65625,0 0,-23.46875 z m 35.3125,0 2.875,0 7.03125,10.84375 7.03125,-10.84375 2.875,0 -8.6875,13.40625 0,10.0625 -2.5,0 0,-10.0625 -8.625,-13.40625 z m 55.5624999,0 8.7187501,0 c 1.802761,2e-5 3.335986,0.62756 4.59375,1.90625 1.257732,1.26825 1.874983,2.80148 1.875,4.59375 -1.7e-5,1.42546 -0.421999,2.71179 -1.25,3.84375 -0.817553,1.12151 -1.877359,1.88278 -3.1875,2.3125 l 6.09375,10.8125 -2.84375,0 -5.90625,-10.53125 -5.59375,0 0,10.53125 -2.5000001,0 0,-23.46875 z m 19.3750001,0 14.5,0 0,2.40625 -12,0 0,6.3125 11,0 0,2.40625 -11,0 0,9.90625 11.90625,0 0,2.4375 -14.40625,0 0,-23.46875 z m 79.093747,0 14.5,0 0,2.40625 -12,0 0,6.3125 11.03125,0 0,2.40625 -11.03125,0 0,9.90625 11.9375,0 0,2.4375 -14.4375,0 0,-23.46875 z m 16.375,0 14.4375,0 0,2.40625 -5.96875,0 0,21.0625 -2.46875,0 0,-21.0625 -6,0 0,-2.40625 z m 16.96875,0 8.71875,0 c 1.80276,2e-5 3.33599,0.62756 4.59375,1.90625 1.25773,1.26825 1.87498,2.80148 1.875,4.59375 -2e-5,1.42546 -0.422,2.71179 -1.25,3.84375 -0.81755,1.12151 -1.87736,1.88278 -3.1875,2.3125 l 6.09375,10.8125 -2.84375,0 -5.90625,-10.53125 -5.59375,0 0,10.53125 -2.5,0 0,-23.46875 z m 46.84375,0 8.71875,0 c 1.80276,2e-5 3.33599,0.62756 4.59375,1.90625 1.25773,1.26825 1.87498,2.80148 1.875,4.59375 -2e-5,1.78183 -0.5965,3.29428 -1.84375,4.5625 -1.24728,1.26824 -2.75993,1.90626 -4.53125,1.90625 l -6.3125,0 0,10.5 -2.5,0 0,-23.46875 z m 46.40625,0 2.5,0 0,21.03125 12,0 0,2.4375 -14.5,0 0,-23.46875 z m 18.25,0 2.5,0 0,23.46875 -2.5,0 0,-23.46875 z m 5.0625,0 14.40625,0 0,2.40625 -5.96875,0 0,21.0625 -2.46875,0 0,-21.0625 -5.96875,0 0,-2.40625 z m 103.65625,0 8.46875,0 c 1.76084,2e-5 3.27349,0.5866 4.53125,1.75 1.26821,1.15296 1.90623,2.53168 1.90625,4.15625 -2e-5,0.85948 -0.20596,1.67239 -0.59375,2.4375 -0.38782,0.75466 -0.91248,1.40297 -1.59375,1.9375 1.19485,0.60792 2.14149,1.45169 2.84375,2.53125 0.71271,1.0691 1.06248,2.24207 1.0625,3.53125 -2e-5,1.31016 -0.36008,2.52447 -1.09375,3.625 -0.72322,1.10053 -1.69044,1.94411 -2.90625,2.5625 -1.21584,0.61839 -2.55379,0.9375 -3.96875,0.9375 l -8.65625,0 0,-23.46875 z m 38.9375,0 14.5,0 0,2.40625 -12,0 0,6.3125 11,0 0,2.40625 -11,0 0,9.90625 11.9375,0 0,2.4375 -14.4375,0 0,-23.46875 z m 18.21875,0 8.75,0 c 1.80276,2e-5 3.33599,0.62756 4.59375,1.90625 1.25773,1.26825 1.87498,2.80148 1.875,4.59375 -2e-5,1.42546 -0.422,2.71179 -1.25,3.84375 -0.81755,1.12151 -1.87736,1.88278 -3.1875,2.3125 l 6.09375,10.8125 -2.84375,0 -5.9375,-10.53125 -5.59375,0 0,10.53125 -2.5,0 0,-23.46875 z m 17.53125,0 2.625,0 7.65625,17.25 7.375,-17.25 2.6875,0 -10,23.6875 -10.34375,-23.6875 z m 22.90625,0 14.53125,0 0,2.40625 -12.03125,0 0,6.3125 11.03125,0 0,2.40625 -11.03125,0 0,9.90625 11.9375,0 0,2.4375 -14.4375,0 0,-23.46875 z m 18.25,0 8.71875,0 c 1.80276,2e-5 3.33599,0.62756 4.59375,1.90625 1.25773,1.26825 1.87498,2.80148 1.875,4.59375 -2e-5,1.42546 -0.39075,2.71179 -1.21875,3.84375 -0.81755,1.12151 -1.87736,1.88278 -3.1875,2.3125 l 6.0625,10.8125 -2.84375,0 -5.90625,-10.53125 -5.59375,0 0,10.53125 -2.5,0 0,-23.46875 z m -305.15625,2.21875 c -1.33113,2e-5 -2.57592,0.24692 -3.78125,0.75 -1.20535,0.50312 -2.25506,1.18229 -3.125,2.03125 -0.86995,0.849 -1.54892,1.84689 -2.0625,3.03125 -0.5031,1.17391 -0.78125,2.41909 -0.78125,3.71875 0,1.2892 0.27815,2.51361 0.78125,3.6875 0.51358,1.17391 1.17178,2.20304 2.03125,3.0625 0.86994,0.84898 1.91965,1.52815 3.125,2.03125 1.21581,0.5031 2.48137,0.75 3.8125,0.75 1.76083,0 3.38665,-0.43227 4.875,-1.28125 1.4988,-0.85946 2.69254,-2.01185 3.5625,-3.46875 0.86992,-1.46737 1.31248,-3.06232 1.3125,-4.78125 -2e-5,-1.72939 -0.44258,-3.31386 -1.3125,-4.78125 -0.86996,-1.46736 -2.0637,-2.651 -3.5625,-3.5 -1.48835,-0.84896 -3.11417,-1.24998 -4.875,-1.25 z m 46.40625,0 c -1.33113,2e-5 -2.57592,0.24692 -3.78125,0.75 -1.20535,0.50312 -2.25506,1.18229 -3.125,2.03125 -0.86995,0.849 -1.54892,1.84689 -2.0625,3.03125 -0.5031,1.17391 -0.75,2.41909 -0.75,3.71875 0,1.2892 0.2469,2.51361 0.75,3.6875 0.51358,1.17391 1.20303,2.20304 2.0625,3.0625 0.86994,0.84898 1.8884,1.52815 3.09375,2.03125 1.21581,0.5031 2.48137,0.75 3.8125,0.75 1.76083,0 3.38665,-0.43227 4.875,-1.28125 1.4988,-0.85946 2.69254,-2.01185 3.5625,-3.46875 0.86992,-1.46737 1.31248,-3.06232 1.3125,-4.78125 -2e-5,-1.72939 -0.44258,-3.31386 -1.3125,-4.78125 -0.86996,-1.46736 -2.0637,-2.651 -3.5625,-3.5 -1.48835,-0.84896 -3.11417,-1.24998 -4.875,-1.25 z m 126.96875,0 c -1.33113,2e-5 -2.57592,0.24692 -3.78125,0.75 -1.20535,0.50312 -2.25506,1.18229 -3.125,2.03125 -0.86995,0.849 -1.54892,1.84689 -2.0625,3.03125 -0.5031,1.17391 -0.75,2.41909 -0.75,3.71875 0,1.2892 0.2469,2.51361 0.75,3.6875 0.51358,1.17391 1.20303,2.20304 2.0625,3.0625 0.86994,0.84898 1.8884,1.52815 3.09375,2.03125 1.21581,0.5031 2.48137,0.75 3.8125,0.75 1.76083,0 3.38665,-0.43227 4.875,-1.28125 1.4988,-0.85946 2.69254,-2.01185 3.5625,-3.46875 0.86992,-1.46737 1.31248,-3.06232 1.3125,-4.78125 -2e-5,-1.72939 -0.44258,-3.31386 -1.3125,-4.78125 -0.86996,-1.46736 -2.0637,-2.651 -3.5625,-3.5 -1.48835,-0.84896 -3.11417,-1.24998 -4.875,-1.25 z m -424.468747,0.1875 0,6.875 5.84375,0 c 1.142444,1e-5 2.120338,-0.32919 2.875,-1 0.765117,-0.68127 1.124985,-1.4736 1.125,-2.375 l 0,-0.0312 c -1.5e-5,-0.91185 -0.380652,-1.71447 -1.15625,-2.40625 -0.765144,-0.70222 -1.722269,-1.06248 -2.84375,-1.0625 l -5.84375,0 z m 90.875,0 0,8.09375 6.28125,0 c 1.058593,1e-5 1.984856,-0.38062 2.75,-1.15625 0.775597,-0.78608 1.156235,-1.73272 1.15625,-2.84375 -1.5e-5,-1.13196 -0.380653,-2.10966 -1.15625,-2.90625 -0.775625,-0.79655 -1.711982,-1.18748 -2.8125,-1.1875 l -6.21875,0 z m 131.812497,0 0,8.09375 6.28125,0 c 1.05859,1e-5 1.98486,-0.38062 2.75,-1.15625 0.7756,-0.78608 1.15624,-1.73272 1.15625,-2.84375 -10e-6,-1.13196 -0.38065,-2.10966 -1.15625,-2.90625 -0.77563,-0.79655 -1.71198,-1.18748 -2.8125,-1.1875 l -6.21875,0 z m 46.84375,0 0,8.09375 6.3125,0 c 1.05859,1e-5 1.95361,-0.38062 2.71875,-1.15625 0.7756,-0.78608 1.15624,-1.73272 1.15625,-2.84375 -10e-6,-1.13196 -0.38065,-2.10966 -1.15625,-2.90625 -0.77563,-0.79655 -1.71198,-1.18748 -2.8125,-1.1875 l -6.21875,0 z m 173.375,0 0,6.875 5.875,0 c 1.14244,1e-5 2.08909,-0.32919 2.84375,-1 0.76512,-0.68127 1.15624,-1.4736 1.15625,-2.375 l 0,-0.0312 c -1e-5,-0.91185 -0.4119,-1.71447 -1.1875,-2.40625 -0.76514,-0.70222 -1.69102,-1.06248 -2.8125,-1.0625 l -5.875,0 z m 57.15625,0 0,8.09375 6.3125,0 c 1.05859,1e-5 1.98486,-0.38062 2.75,-1.15625 0.7756,-0.78608 1.15624,-1.73272 1.15625,-2.84375 -1e-5,-1.13196 -0.38065,-2.10966 -1.15625,-2.90625 -0.77563,-0.79655 -1.71198,-1.18748 -2.8125,-1.1875 l -6.25,0 z m 58.6875,0 0,8.09375 6.3125,0 c 1.05859,1e-5 1.95361,-0.38062 2.71875,-1.15625 0.7756,-0.78608 1.15624,-1.73272 1.15625,-2.84375 -1e-5,-1.13196 -0.38065,-2.10966 -1.15625,-2.90625 -0.77563,-0.79655 -1.71198,-1.18748 -2.8125,-1.1875 l -6.21875,0 z m -532.718747,3.59375 -3.78125,8.0625 7.625,0 -3.84375,-8.0625 z m 49.3124999,0 -3.8125,8.0625 7.625,0 -3.8125,-8.0625 z m 59.2812501,0 -3.78125,8.0625 7.625,0 -3.84375,-8.0625 z m 227.468747,0 -3.78125,8.0625 7.625,0 -3.84375,-8.0625 z m -362.093747,5.65625 0,9.375 6.15625,0 c 1.540731,0 2.826862,-0.44217 3.875,-1.375 1.048109,-0.93283 1.593734,-2.04426 1.59375,-3.3125 -1.6e-5,-1.26822 -0.545641,-2.35889 -1.59375,-3.28125 -1.048138,-0.92234 -2.334269,-1.40624 -3.875,-1.40625 l -6.15625,0 z m 442.906247,0 0,9.375 6.15625,0 c 1.54073,0 2.85811,-0.44217 3.90625,-1.375 1.04811,-0.93283 1.56248,-2.04426 1.5625,-3.3125 -2e-5,-1.26822 -0.51439,-2.35889 -1.5625,-3.28125 -1.04814,-0.92234 -2.36552,-1.40624 -3.90625,-1.40625 l -6.15625,0 z"
       id="path3785"
       inkscape:connector-curvature="0"
       inkscape:export-filename="/home/mollineaux/repos/sfyimby/assets/static/logo.png"
       inkscape:export-xdpi="217.62128"
       inkscape:export-ydpi="217.62128" />
  </g>
</svg>
